# This file uses centimeters as units for non-parametric coordinates.

mtllib Target.mtl
g default
v -1.333869 -1.331892 -0.000000
v -1.237560 -1.331892 -0.000000
v -0.642857 -1.331892 -0.000000
v -0.057985 -1.331892 -0.000000
v 0.057985 -1.331892 -0.000000
v 0.642857 -1.331892 -0.000000
v 1.242222 -1.331892 -0.000000
v 1.329206 -1.331892 -0.000000
v -1.333869 -1.239536 -0.000000
v -1.237560 -1.239536 -0.000000
v -0.642857 -1.239536 -0.000000
v -0.057985 -1.239536 -0.000000
v 0.057985 -1.239536 -0.000000
v 0.642857 -1.239536 -0.000000
v 1.242222 -1.239536 -0.000000
v 1.329206 -1.239536 -0.000000
v -1.333869 -0.642857 -0.000000
v -1.237560 -0.642857 -0.000000
v -0.057985 -0.642857 -0.000000
v 0.057985 -0.642857 -0.000000
v 1.242222 -0.642857 -0.000000
v 1.329206 -0.642857 -0.000000
v -1.333869 -0.060659 -0.000000
v -1.237560 -0.060659 -0.000000
v -0.642857 -0.060659 -0.000000
v -0.057985 -0.060659 -0.000000
v 0.057985 -0.060659 -0.000000
v 0.642857 -0.060659 -0.000000
v 1.242222 -0.060659 -0.000000
v 1.329206 -0.060659 -0.000000
v -1.333869 0.060659 0.000000
v -1.237560 0.060659 0.000000
v -0.642857 0.060659 0.000000
v -0.057985 0.060659 0.000000
v 0.057985 0.060659 0.000000
v 0.642857 0.060659 0.000000
v 1.242222 0.060659 0.000000
v 1.329206 0.060659 0.000000
v -1.333869 0.642857 0.000000
v -1.237560 0.642857 0.000000
v -0.057985 0.642857 0.000000
v 0.057985 0.642857 0.000000
v 1.242222 0.642857 0.000000
v 1.329206 0.642857 0.000000
v -1.333869 1.241845 0.000000
v -1.237560 1.241845 0.000000
v -0.642857 1.241845 0.000000
v -0.057985 1.241845 0.000000
v 0.057985 1.241845 0.000000
v 0.642857 1.241845 0.000000
v 1.242222 1.241845 0.000000
v 1.329206 1.241845 0.000000
v -1.333869 1.329584 0.000000
v -1.237560 1.329584 0.000000
v -0.642857 1.329584 0.000000
v -0.057985 1.329584 0.000000
v 0.057985 1.329584 0.000000
v 0.642857 1.329584 0.000000
v 1.242222 1.329584 0.000000
v 1.329206 1.329584 0.000000
vt 0.000000 0.000000
vt 0.142857 0.000000
vt 0.285714 0.000000
vt 0.428571 0.000000
vt 0.571429 0.000000
vt 0.714286 0.000000
vt 0.857143 0.000000
vt 1.000000 0.000000
vt 0.000000 0.142857
vt 0.142857 0.142857
vt 0.285714 0.142857
vt 0.428571 0.142857
vt 0.571429 0.142857
vt 0.714286 0.142857
vt 0.857143 0.142857
vt 1.000000 0.142857
vt 0.000000 0.285714
vt 0.142857 0.285714
vt 0.428571 0.285714
vt 0.571429 0.285714
vt 0.857143 0.285714
vt 1.000000 0.285714
vt 0.000000 0.428571
vt 0.142857 0.428571
vt 0.285714 0.428571
vt 0.428571 0.428571
vt 0.571429 0.428571
vt 0.714286 0.428571
vt 0.857143 0.428571
vt 1.000000 0.428571
vt 0.000000 0.571429
vt 0.142857 0.571429
vt 0.285714 0.571429
vt 0.428571 0.571429
vt 0.571429 0.571429
vt 0.714286 0.571429
vt 0.857143 0.571429
vt 1.000000 0.571429
vt 0.000000 0.714286
vt 0.142857 0.714286
vt 0.428571 0.714286
vt 0.571429 0.714286
vt 0.857143 0.714286
vt 1.000000 0.714286
vt 0.000000 0.857143
vt 0.142857 0.857143
vt 0.285714 0.857143
vt 0.428571 0.857143
vt 0.571429 0.857143
vt 0.714286 0.857143
vt 0.857143 0.857143
vt 1.000000 0.857143
vt 0.000000 1.000000
vt 0.142857 1.000000
vt 0.285714 1.000000
vt 0.428571 1.000000
vt 0.571429 1.000000
vt 0.714286 1.000000
vt 0.857143 1.000000
vt 1.000000 1.000000
vn 0.000000 -0.000000 1.000000
vn 0.000000 -0.000000 1.000000
vn 0.000000 -0.000000 1.000000
vn 0.000000 -0.000000 1.000000
vn 0.000000 -0.000000 1.000000
vn 0.000000 -0.000000 1.000000
vn 0.000000 -0.000000 1.000000
vn 0.000000 -0.000000 1.000000
vn 0.000000 -0.000000 1.000000
vn 0.000000 -0.000000 1.000000
vn 0.000000 -0.000000 1.000000
vn 0.000000 -0.000000 1.000000
vn 0.000000 -0.000000 1.000000
vn 0.000000 -0.000000 1.000000
vn 0.000000 -0.000000 1.000000
vn 0.000000 -0.000000 1.000000
vn 0.000000 -0.000000 1.000000
vn 0.000000 -0.000000 1.000000
vn 0.000000 -0.000000 1.000000
vn 0.000000 -0.000000 1.000000
vn 0.000000 -0.000000 1.000000
vn 0.000000 -0.000000 1.000000
vn 0.000000 -0.000000 1.000000
vn 0.000000 -0.000000 1.000000
vn 0.000000 -0.000000 1.000000
vn 0.000000 -0.000000 1.000000
vn 0.000000 -0.000000 1.000000
vn 0.000000 -0.000000 1.000000
vn 0.000000 -0.000000 1.000000
vn 0.000000 -0.000000 1.000000
vn 0.000000 -0.000000 1.000000
vn 0.000000 -0.000000 1.000000
vn 0.000000 -0.000000 1.000000
vn 0.000000 -0.000000 1.000000
vn 0.000000 -0.000000 1.000000
vn 0.000000 -0.000000 1.000000
vn 0.000000 -0.000000 1.000000
vn 0.000000 -0.000000 1.000000
vn 0.000000 -0.000000 1.000000
vn 0.000000 -0.000000 1.000000
vn 0.000000 -0.000000 1.000000
vn 0.000000 -0.000000 1.000000
vn 0.000000 -0.000000 1.000000
vn 0.000000 -0.000000 1.000000
vn 0.000000 -0.000000 1.000000
vn 0.000000 -0.000000 1.000000
vn 0.000000 -0.000000 1.000000
vn 0.000000 -0.000000 1.000000
vn 0.000000 -0.000000 1.000000
vn 0.000000 -0.000000 1.000000
vn 0.000000 -0.000000 1.000000
vn 0.000000 -0.000000 1.000000
vn 0.000000 -0.000000 1.000000
vn 0.000000 -0.000000 1.000000
vn 0.000000 -0.000000 1.000000
vn 0.000000 -0.000000 1.000000
vn 0.000000 -0.000000 1.000000
vn 0.000000 -0.000000 1.000000
vn 0.000000 -0.000000 1.000000
vn 0.000000 -0.000000 1.000000
s 1
g pPlane1
usemtl initialShadingGroup
f 1/1/1 2/2/2 10/10/3 9/9/4
f 2/2/2 3/3/5 11/11/6 10/10/3
s 2
f 4/4/7 5/5/8 13/13/9 12/12/10
s 3
f 6/6/11 7/7/12 15/15/13 14/14/14
f 7/7/12 8/8/15 16/16/16 15/15/13
s 1
f 9/9/4 10/10/3 18/18/17 17/17/18
s 2
f 12/12/10 13/13/9 20/20/19 19/19/20
s 3
f 15/15/13 16/16/16 22/22/21 21/21/22
s 2
f 19/19/20 20/20/19 27/27/23 26/26/24
f 23/23/25 24/24/26 32/32/27 31/31/28
f 24/24/26 25/25/29 33/33/30 32/32/27
f 25/25/29 26/26/24 34/34/31 33/33/30
f 26/26/24 27/27/23 35/35/32 34/34/31
f 27/27/23 28/28/33 36/36/34 35/35/32
f 28/28/33 29/29/35 37/37/36 36/36/34
f 29/29/35 30/30/37 38/38/38 37/37/36
f 34/34/31 35/35/32 42/42/39 41/41/40
s 5
f 39/39/41 40/40/42 46/46/43 45/45/44
s 2
f 41/41/40 42/42/39 49/49/45 48/48/46
s 6
f 43/43/47 44/44/48 52/52/49 51/51/50
s 5
f 45/45/44 46/46/43 54/54/51 53/53/52
f 46/46/43 47/47/53 55/55/54 54/54/51
s 2
f 48/48/46 49/49/45 57/57/55 56/56/56
s 6
f 50/50/57 51/51/50 59/59/58 58/58/59
f 51/51/50 52/52/49 60/60/60 59/59/58
